<svg width="100" height="100" viewBox="0 0 100 100" fill="none" xmlns="http://www.w3.org/2000/svg">
<rect x="9" y="9" width="82" height="82" rx="9" fill="white" fill-opacity="0.2" stroke="white" stroke-width="2"/>
<path d="M55.0451 71.7472L94 51.6415V72.3563C94 73.4713 93.3816 74.4943 92.3944 75.0126L54.8624 94.7151C52.2817 96.0698 49.2046 96.0909 46.6056 94.7716L7.64213 74.9939C6.63471 74.4825 6 73.4485 6 72.3188V51.6415L44.9549 71.7472C48.12 73.3808 51.88 73.3808 55.0451 71.7472Z" fill="url(#paint0_linear_322_61)" stroke="#AFAFAF" stroke-width="2"/>
<path d="M7.67232 52.679C5.49322 51.602 5.4326 48.5163 7.56772 47.3545L45.9114 26.49C48.5886 25.0332 51.8212 25.0304 54.5009 26.4825L92.7484 47.2079C94.8853 48.3658 94.8304 51.4512 92.6536 52.5323L54.1127 71.6753C51.5962 72.9253 48.6402 72.9282 46.1212 71.6831L7.67232 52.679Z" fill="#D9D9D9" stroke="#AFAFAF" stroke-width="2"/>
<path fill-rule="evenodd" clip-rule="evenodd" d="M71.536 29.7144H28.8115V49.9114V50.6882H28.8526C29.5418 57.1907 38.8241 62.3403 50.1738 62.3403C61.5234 62.3403 70.8058 57.1907 71.495 50.6882H71.536V49.9114V29.7144Z" fill="#FF5757"/>
<path d="M70.537 30.4914C70.537 33.419 68.49 36.2556 64.7773 38.4157C61.0895 40.5613 55.929 41.9204 50.1748 41.9204C44.4205 41.9204 39.26 40.5613 35.5723 38.4157C31.8595 36.2556 29.8125 33.419 29.8125 30.4914C29.8125 27.5639 31.8595 24.7273 35.5723 22.5672C39.26 20.4216 44.4205 19.0625 50.1748 19.0625C55.929 19.0625 61.0895 20.4216 64.7773 22.5672C68.49 24.7273 70.537 27.5639 70.537 30.4914Z" fill="#FF5757" stroke="#F01D1D" stroke-width="2"/>
<defs>
<linearGradient id="paint0_linear_322_61" x1="92" y1="60" x2="5" y2="64" gradientUnits="userSpaceOnUse">
<stop stop-color="#E5E5E5"/>
<stop offset="0.62" stop-color="#7F7F7F"/>
</linearGradient>
</defs>
</svg>
