<svg width="100" height="100" viewBox="0 0 100 100" fill="none" xmlns="http://www.w3.org/2000/svg">
<rect x="9" y="9" width="82" height="82" rx="9" fill="black" fill-opacity="0.05" stroke="#AFAFAF" stroke-width="2"/>
<path d="M80.817 67.3533H78.9723C78.4804 61.0816 73.1925 56.0396 66.6747 56.0396C61.0179 56.0396 56.3448 59.8518 54.8691 65.0168C53.5163 64.033 51.7947 63.2951 49.95 63.2951C48.1054 63.2951 46.3837 63.91 45.031 65.0168C43.5553 59.8518 38.7593 56.0396 33.2253 56.0396C26.8306 56.0396 21.4197 60.9586 20.9278 67.3533H19.0831C18.3453 67.3533 17.6074 67.9682 17.6074 68.829C17.6074 69.6899 18.2223 70.3047 19.0831 70.3047H21.0507C21.9116 76.2076 27.0766 80.7577 33.2253 80.7577C39.989 80.7577 45.3999 75.3467 45.5229 68.7061C46.5067 67.2303 48.1054 66.3695 50.073 66.3695C52.0406 66.3695 53.6393 67.3533 54.6231 68.7061C54.7461 75.3467 60.157 80.7577 66.9207 80.7577C73.0695 80.7577 78.2345 76.2076 79.0953 70.3047H81.0629C81.8008 70.3047 82.5386 69.6899 82.5386 68.829C82.5386 67.9682 81.6778 67.3533 80.817 67.3533Z" fill="black"/>
<path d="M77.7424 87.1528H50.0729H49.9499H22.1574C21.6655 87.1528 21.1736 87.3988 20.9276 87.8907C20.6817 88.3826 20.6817 88.8745 20.9276 89.3664C24.002 94.9003 29.7819 98.3436 36.1766 98.3436C41.7105 98.3436 46.7525 95.7611 50.0729 91.457C53.2702 95.7611 58.4352 98.3436 63.9691 98.3436C70.2409 98.3436 76.1437 94.9003 79.2181 89.3664C79.4641 88.8745 79.4641 88.3826 79.2181 87.8907C78.7262 87.3988 78.2343 87.1528 77.7424 87.1528Z" fill="#4A4A4A"/>
<path fill-rule="evenodd" clip-rule="evenodd" d="M74.5461 33.5352H24.495V33.6582H20.9287L22.0355 30.4608L25.3558 20.8687L26.7086 17.0565L31.3817 3.65213C31.7506 2.42237 32.8574 1.80749 34.0871 2.05344L45.6468 4.38998V5.25081L42.0805 6.48057C41.3427 6.72652 40.9738 7.58735 41.2197 8.32521C41.4657 8.94009 41.9576 9.30901 42.5724 9.30901C42.7165 9.30901 42.8184 9.26682 42.9028 9.23186C42.9625 9.20714 43.0134 9.18604 43.0644 9.18604L53.1484 5.86569L64.3392 2.17642C65.6919 1.80749 66.9216 2.42237 67.4135 3.65213L72.0866 17.0565L75.038 25.0499L76.8827 30.3379L77.9895 33.5352H74.5461ZM95.4514 39.1924C96.5582 39.1924 97.542 39.9302 97.788 41.037C98.0339 42.1438 97.542 43.2506 96.5582 43.7425C95.8204 44.1114 78.6038 51.6129 49.5815 51.6129C20.5592 51.6129 4.20344 44.1114 3.46558 43.7425C2.3588 43.2506 1.8669 42.1438 2.11285 41.037C2.3588 39.9302 3.34261 39.1924 4.44939 39.1924H95.4514Z" fill="url(#paint0_linear_323_116)"/>
<defs>
<linearGradient id="paint0_linear_323_116" x1="67.5" y1="2" x2="56" y2="62" gradientUnits="userSpaceOnUse">
<stop stop-color="#666666"/>
<stop offset="1"/>
</linearGradient>
</defs>
</svg>
